<svg width="32" height="32" viewBox="0 0 32 32" fill="none" xmlns="http://www.w3.org/2000/svg">
<mask id="mask0_270_63993" style="mask-type:alpha" maskUnits="userSpaceOnUse" x="0" y="0" width="32" height="32">
<rect width="32" height="32" rx="16" fill="white"/>
</mask>
<g mask="url(#mask0_270_63993)">
<path fill-rule="evenodd" clip-rule="evenodd" d="M0 0V32H32V0H0Z" fill="#2E42A5"/>
<mask id="mask1_270_63993" style="mask-type:alpha" maskUnits="userSpaceOnUse" x="0" y="0" width="32" height="32">
<path fill-rule="evenodd" clip-rule="evenodd" d="M0 0V32H32V0H0Z" fill="white"/>
</mask>
<g mask="url(#mask1_270_63993)">
<rect width="18" height="18.6667" fill="#2B409A"/>
<mask id="mask2_270_63993" style="mask-type:alpha" maskUnits="userSpaceOnUse" x="0" y="0" width="18" height="19">
<rect width="18" height="18.6667" fill="white"/>
</mask>
<g mask="url(#mask2_270_63993)">
<path d="M-2.00426 17.3331L1.95669 19.6494L18.0899 2.51832L20.1792 -0.923719L15.9435 -1.69788L9.36318 5.68437L4.06668 10.6583L-2.00426 17.3331Z" fill="#F7FCFF"/>
<path d="M-1.46201 18.9559L0.555916 20.3001L19.4289 -1.24352H16.5955L-1.46201 18.9559Z" fill="#F50100"/>
<path d="M20.0043 17.3331L16.0433 19.6494L-0.0898743 2.51832L-2.17919 -0.923719L2.05648 -1.69788L8.63683 5.68437L13.9333 10.6583L20.0043 17.3331Z" fill="#F7FCFF"/>
<path d="M19.8691 18.4978L17.8512 19.842L9.81487 10.618L7.43227 9.58744L-2.38022 -0.911932H0.453171L10.2602 9.33823L12.8651 10.574L19.8691 18.4978Z" fill="#F50100"/>
<mask id="path-10-outside-1_270_63993" maskUnits="userSpaceOnUse" x="-2" y="-2" width="22" height="23" fill="black">
<rect fill="white" x="-2" y="-2" width="22" height="23"/>
<path fill-rule="evenodd" clip-rule="evenodd" d="M9.98451 0H7.98451V8H0V10.6667H7.98451V18.6667H9.98451V10.6667H18V8H9.98451V0Z"/>
</mask>
<path fill-rule="evenodd" clip-rule="evenodd" d="M9.98451 0H7.98451V8H0V10.6667H7.98451V18.6667H9.98451V10.6667H18V8H9.98451V0Z" fill="#F50100"/>
<path d="M7.98451 0V-1.5H6.48451V0H7.98451ZM9.98451 0H11.4845V-1.5H9.98451V0ZM7.98451 8V9.5H9.48451V8H7.98451ZM0 8V6.5H-1.5V8H0ZM0 10.6667H-1.5V12.1667H0V10.6667ZM7.98451 10.6667H9.48451V9.16667H7.98451V10.6667ZM7.98451 18.6667H6.48451V20.1667H7.98451V18.6667ZM9.98451 18.6667V20.1667H11.4845V18.6667H9.98451ZM9.98451 10.6667V9.16667H8.48451V10.6667H9.98451ZM18 10.6667V12.1667H19.5V10.6667H18ZM18 8H19.5V6.5H18V8ZM9.98451 8H8.48451V9.5H9.98451V8ZM7.98451 1.5H9.98451V-1.5H7.98451V1.5ZM9.48451 8V0H6.48451V8H9.48451ZM0 9.5H7.98451V6.5H0V9.5ZM1.5 10.6667V8H-1.5V10.6667H1.5ZM7.98451 9.16667H0V12.1667H7.98451V9.16667ZM9.48451 18.6667V10.6667H6.48451V18.6667H9.48451ZM9.98451 17.1667H7.98451V20.1667H9.98451V17.1667ZM8.48451 10.6667V18.6667H11.4845V10.6667H8.48451ZM18 9.16667H9.98451V12.1667H18V9.16667ZM16.5 8V10.6667H19.5V8H16.5ZM9.98451 9.5H18V6.5H9.98451V9.5ZM8.48451 0V8H11.4845V0H8.48451Z" fill="#F7FCFF" mask="url(#path-10-outside-1_270_63993)"/>
</g>
</g>
<path d="M9 24.1667L7.69835 25.3696L7.82725 23.6019L6.07522 23.3342L7.53761 22.3329L6.65451 20.7962L8.34917 21.3152L9 19.6667L9.65083 21.3152L11.3455 20.7962L10.4624 22.3329L11.9248 23.3342L10.1727 23.6019L10.3017 25.3696L9 24.1667Z" fill="#F7FCFF"/>
<path d="M22 16.6667L21.1322 17.4686L21.2182 16.2902L20.0501 16.1117L21.0251 15.4441L20.4363 14.4197L21.5661 14.7657L22 13.6667L22.4339 14.7657L23.5637 14.4197L22.9749 15.4441L23.9499 16.1117L22.7818 16.2902L22.8678 17.4686L22 16.6667Z" fill="#F7FCFF"/>
<path d="M24 8.66667L23.1322 9.4686L23.2182 8.29016L22.0501 8.11171L23.0251 7.44415L22.4363 6.41969L23.5661 6.7657L24 5.66667L24.4339 6.7657L25.5637 6.41969L24.9749 7.44415L25.9499 8.11171L24.7818 8.29016L24.8678 9.4686L24 8.66667Z" fill="#F7FCFF"/>
<path d="M29 12.6667L28.1322 13.4686L28.2182 12.2902L27.0501 12.1117L28.0251 11.4441L27.4363 10.4197L28.5661 10.7657L29 9.66667L29.4339 10.7657L30.5637 10.4197L29.9749 11.4441L30.9499 12.1117L29.7818 12.2902L29.8678 13.4686L29 12.6667Z" fill="#F7FCFF"/>
<path d="M25 25.6667L24.1322 26.4686L24.2182 25.2902L23.0501 25.1117L24.0251 24.4441L23.4363 23.4197L24.5661 23.7657L25 22.6667L25.4339 23.7657L26.5637 23.4197L25.9749 24.4441L26.9499 25.1117L25.7818 25.2902L25.8678 26.4686L25 25.6667Z" fill="#F7FCFF"/>
<path d="M28.5 17.9167L27.6183 18.3802L27.7867 17.3984L27.0734 16.7031L28.0592 16.5599L28.5 15.6667L28.9408 16.5599L29.9266 16.7031L29.2133 17.3984L29.3817 18.3802L28.5 17.9167Z" fill="#F7FCFF"/>
</g>
</svg>
