<svg width="32" height="32" viewBox="0 0 32 32" fill="none" xmlns="http://www.w3.org/2000/svg">
<mask id="mask0_270_67349" style="mask-type:alpha" maskUnits="userSpaceOnUse" x="0" y="0" width="32" height="32">
<rect width="32" height="32" rx="16" fill="white"/>
</mask>
<g mask="url(#mask0_270_67349)">
<path fill-rule="evenodd" clip-rule="evenodd" d="M0 16C0 7.16344 7.16344 0 16 0V0C24.8366 0 32 7.16344 32 16V16C32 24.8366 24.8366 32 16 32V32C7.16344 32 0 24.8366 0 16V16Z" fill="#E31D1C"/>
<path fill-rule="evenodd" clip-rule="evenodd" d="M15.2591 6.25607C15.117 6.14417 14.9159 6.14479 14.775 6.25819V6.25819C14.5002 6.47933 14.0968 6.24908 14.1475 5.90006L14.2047 5.50622C14.2248 5.36794 14.1909 5.22723 14.1101 5.11321L13.8731 4.77864C13.6651 4.48491 13.8616 4.07701 14.221 4.05675L14.2507 4.05508C14.4214 4.04546 14.5694 3.92955 14.6223 3.76696V3.76696C14.7451 3.38946 15.2827 3.37849 15.4055 3.75599V3.75599C15.4605 3.92483 15.6178 4.03912 15.7954 4.03912H15.8152C16.1649 4.03912 16.3731 4.42935 16.1783 4.71983L15.9146 5.11308C15.838 5.22733 15.8075 5.36632 15.8291 5.50216L15.8906 5.88793C15.9467 6.24026 15.5393 6.47681 15.2591 6.25607V6.25607Z" fill="#FECA00"/>
<path fill-rule="evenodd" clip-rule="evenodd" d="M7.67939 13.2745C7.28382 12.9967 6.75447 12.9984 6.36178 13.2803V13.2803C5.53967 13.8704 4.41424 13.173 4.57689 12.1741L4.69188 11.468C4.75678 11.0694 4.65059 10.662 4.39942 10.3458L3.90359 9.72158C3.27237 8.92696 3.80393 7.75132 4.81747 7.70037L4.86318 7.69807C5.33595 7.6743 5.75089 7.36351 5.91309 6.9188V6.9188C6.28567 5.89732 7.73984 5.87127 8.11242 6.89275V6.89275C8.28021 7.35278 8.72376 7.65886 9.21343 7.65886V7.65886C10.2028 7.65886 10.785 8.78899 10.1904 9.5798L9.61606 10.3437C9.37702 10.6616 9.28096 11.0646 9.35088 11.4562L9.47253 12.1374C9.65252 13.1454 8.5173 13.863 7.67939 13.2745V13.2745Z" fill="#FECA00"/>
<path fill-rule="evenodd" clip-rule="evenodd" d="M17.2591 11.5894C17.117 11.4775 16.9159 11.4781 16.775 11.5915V11.5915C16.5002 11.8127 16.0968 11.5824 16.1475 11.2334L16.2047 10.8396C16.2248 10.7013 16.1909 10.5606 16.1101 10.4465L15.8731 10.112C15.6651 9.81825 15.8616 9.41034 16.221 9.39008L16.2507 9.38841C16.4214 9.37879 16.5694 9.26288 16.6223 9.1003V9.1003C16.7451 8.72279 17.2827 8.71182 17.4055 9.08933V9.08933C17.4605 9.25816 17.6178 9.37245 17.7954 9.37245H17.8152C18.1649 9.37245 18.3731 9.76269 18.1783 10.0532L17.9146 10.4464C17.838 10.5607 17.8075 10.6997 17.8291 10.8355L17.8906 11.2213C17.9467 11.5736 17.5393 11.8101 17.2591 11.5894V11.5894Z" fill="#FECA00"/>
<path fill-rule="evenodd" clip-rule="evenodd" d="M16.2591 16.9227C16.117 16.8108 15.9159 16.8115 15.775 16.9249V16.9249C15.5002 17.146 15.0968 16.9157 15.1475 16.5667L15.2047 16.1729C15.2248 16.0346 15.1909 15.8939 15.1101 15.7799L14.8731 15.4453C14.6651 15.1516 14.8616 14.7437 15.221 14.7234L15.2507 14.7217C15.4214 14.7121 15.5694 14.5962 15.6223 14.4336V14.4336C15.7451 14.0561 16.2827 14.0452 16.4055 14.4227V14.4227C16.4605 14.5915 16.6178 14.7058 16.7954 14.7058H16.8152C17.1649 14.7058 17.3731 15.096 17.1783 15.3865L16.9146 15.7797C16.838 15.894 16.8075 16.033 16.8291 16.1688L16.8906 16.5546C16.9467 16.9069 16.5393 17.1435 16.2591 16.9227V16.9227Z" fill="#FECA00"/>
<path fill-rule="evenodd" clip-rule="evenodd" d="M13.2591 20.9227C13.117 20.8108 12.9159 20.8115 12.775 20.9249V20.9249C12.5002 21.146 12.0968 20.9157 12.1475 20.5667L12.2047 20.1729C12.2248 20.0346 12.1909 19.8939 12.1101 19.7799L11.8731 19.4453C11.6651 19.1516 11.8616 18.7437 12.221 18.7234L12.2507 18.7217C12.4214 18.7121 12.5694 18.5962 12.6223 18.4336V18.4336C12.7451 18.0561 13.2827 18.0452 13.4055 18.4227V18.4227C13.4605 18.5915 13.6178 18.7058 13.7954 18.7058H13.8152C14.1649 18.7058 14.3731 19.096 14.1783 19.3865L13.9146 19.7797C13.838 19.894 13.8075 20.033 13.8291 20.1688L13.8906 20.5546C13.9467 20.9069 13.5393 21.1435 13.2591 20.9227V20.9227Z" fill="#FECA00"/>
</g>
</svg>
