<svg width="32" height="32" viewBox="0 0 32 32" fill="none" xmlns="http://www.w3.org/2000/svg">
<mask id="mask0_270_66155" style="mask-type:alpha" maskUnits="userSpaceOnUse" x="0" y="0" width="32" height="32">
<rect width="32" height="32" rx="16" fill="white"/>
</mask>
<g mask="url(#mask0_270_66155)">
<path fill-rule="evenodd" clip-rule="evenodd" d="M0 0V32H32V0H0Z" fill="#F7FCFF"/>
<mask id="mask1_270_66155" style="mask-type:alpha" maskUnits="userSpaceOnUse" x="0" y="0" width="32" height="32">
<path fill-rule="evenodd" clip-rule="evenodd" d="M0 0V32H32V0H0Z" fill="white"/>
</mask>
<g mask="url(#mask1_270_66155)">
<path fill-rule="evenodd" clip-rule="evenodd" d="M0 0V10.6667H32V0H0Z" fill="#BF2714"/>
<path fill-rule="evenodd" clip-rule="evenodd" d="M0 21.3333V32H32V21.3333H0Z" fill="#272727"/>
<path d="M12.2603 13.627L13.2593 13.688L13.0085 20.9811L12.0096 20.92L12.2603 13.627Z" fill="#C09302"/>
<path d="M13.3041 14.0796L14.3025 14.1549L14.0517 20.0687L13.0533 19.9934L13.3041 14.0796Z" fill="#C09302"/>
<path d="M14.3484 14.5225L15.3451 14.6316L15.0943 18.7062L14.0977 18.5972L14.3484 14.5225Z" fill="#C09302"/>
<path d="M19.7397 13.627L18.7407 13.688L18.9915 20.9811L19.9904 20.92L19.7397 13.627Z" fill="#C09302"/>
<path d="M18.6959 14.0796L17.6975 14.1549L17.9483 20.0687L18.9467 19.9934L18.6959 14.0796Z" fill="#C09302"/>
<path d="M17.6516 14.5225L16.6549 14.6316L16.9057 18.7062L17.9023 18.5972L17.6516 14.5225Z" fill="#C09302"/>
<path d="M15.9734 20.4356L14.9986 20.1378L15.4112 17.7369L16.3859 18.0346L15.9734 20.4356Z" fill="#C09302"/>
<path d="M16.7195 20.4356L17.6943 20.1378L17.2817 17.7369L16.3069 18.0346L16.7195 20.4356Z" fill="#C09302"/>
<path d="M16.4722 20.4136H15.4722V18.0563H16.4722V20.4136Z" fill="#C09302"/>
<path d="M14.6348 14.551L15.6345 14.5837L15.5761 17.7582L14.5764 17.7255L14.6348 14.551Z" fill="#C09302"/>
<path d="M16.3739 14.551L17.3736 14.5837L17.3152 17.7582L16.3155 17.7255L16.3739 14.551Z" fill="#C09302"/>
<path d="M13.338 21.2305L13.5977 19.9429C14.6587 20.3233 15.4734 20.5115 16.029 20.5115C16.5845 20.5115 17.3993 20.3233 18.4603 19.9429L18.72 21.2305C17.5816 21.6387 16.6889 21.8448 16.029 21.8448C15.3691 21.8448 14.4764 21.6387 13.338 21.2305Z" fill="#C09302"/>
<path d="M12.2823 13.6303C12.2157 12.7495 12.6023 12.1532 13.2576 12.2293C13.473 12.2543 13.715 12.3393 14.0373 12.4851C14.1315 12.5282 14.1315 12.5282 14.223 12.5714C14.6661 12.7815 14.7864 12.8355 14.8114 12.8426C14.7132 12.813 15.0024 12.1159 15.0687 11.9985C15.0766 12.0731 15.0433 12.0624 14.9633 12.0411L14.0613 11.8004L14.7034 10.9221C14.9279 10.6151 15.2268 10.4628 15.5678 10.4628C15.6032 10.4628 15.6362 10.4606 15.7445 10.4517C15.8247 10.4452 15.8247 10.4452 15.9148 10.4403C16.5387 10.4133 16.9862 10.6486 16.9862 11.5041C16.9862 11.8102 17.0152 12.3024 17.0631 12.6758C17.0792 12.8014 17.1103 12.919 17.0185 12.9706C17.0223 12.926 17.2409 12.811 17.5807 12.6215L17.6215 12.5988C18.609 12.0493 18.7243 11.9983 19.0426 12.2562C19.2547 12.4281 19.4567 12.7373 19.683 13.1982L18.8463 13.9285C18.7004 13.6312 18.5841 13.4508 18.5288 13.4004C18.6546 13.5169 18.2309 13.7045 18.0067 13.8293L17.9666 13.8516C17.1978 14.2803 17.0964 14.3315 16.8766 14.3315C16.2784 14.3315 16.0636 13.5145 16.0048 12.3444C15.8202 13.1545 15.2696 14.1768 14.8158 14.1768C14.6172 14.1768 14.7127 14.2187 13.8879 13.8276C13.8015 13.7868 13.8015 13.7868 13.716 13.7477C13.4662 13.6347 13.2859 13.5713 13.1722 13.5578C13.1769 13.5506 13.1936 13.5266 13.2124 13.5051L12.2823 13.6303Z" fill="#C09302"/>
</g>
</g>
</svg>
