<svg width="32" height="32" viewBox="0 0 32 32" fill="none" xmlns="http://www.w3.org/2000/svg">
<mask id="mask0_270_61364" style="mask-type:alpha" maskUnits="userSpaceOnUse" x="0" y="0" width="32" height="32">
<rect width="32" height="32" rx="16" fill="white"/>
</mask>
<g mask="url(#mask0_270_61364)">
<path fill-rule="evenodd" clip-rule="evenodd" d="M0 0H32V32H0V0Z" fill="#F7FCFF"/>
<path fill-rule="evenodd" clip-rule="evenodd" d="M0 19.5555V22.2222H32V19.5555H0Z" fill="#E31D1C"/>
<path fill-rule="evenodd" clip-rule="evenodd" d="M0 24.4445V27.1111H32V24.4445H0Z" fill="#E31D1C"/>
<path fill-rule="evenodd" clip-rule="evenodd" d="M0 9.77778V12.4444H32V9.77778H0Z" fill="#E31D1C"/>
<path fill-rule="evenodd" clip-rule="evenodd" d="M0 29.3333V32H32V29.3333H0Z" fill="#E31D1C"/>
<path fill-rule="evenodd" clip-rule="evenodd" d="M0 14.6667V17.3333H32V14.6667H0Z" fill="#E31D1C"/>
<path fill-rule="evenodd" clip-rule="evenodd" d="M0 0V2.66667H32V0H0Z" fill="#E31D1C"/>
<path fill-rule="evenodd" clip-rule="evenodd" d="M0 4.88889V7.55555H32V4.88889H0Z" fill="#E31D1C"/>
<rect width="20" height="17.3333" fill="#2E42A5"/>
<path fill-rule="evenodd" clip-rule="evenodd" d="M1.72203 3.91822L0.996148 4.59674L1.24121 3.38926L0.596497 2.62404H1.43858L1.72101 1.63862L2.05218 2.62404H2.77004L2.206 3.38926L2.42437 4.59674L1.72203 3.91822ZM5.72203 3.91822L4.99615 4.59674L5.24121 3.38926L4.5965 2.62404H5.43858L5.72101 1.63862L6.05218 2.62404H6.77004L6.206 3.38926L6.42437 4.59674L5.72203 3.91822ZM8.99615 4.59674L9.72203 3.91822L10.4244 4.59674L10.206 3.38926L10.77 2.62404H10.0522L9.72101 1.63862L9.43858 2.62404H8.5965L9.24121 3.38926L8.99615 4.59674ZM13.722 3.91822L12.9961 4.59674L13.2412 3.38926L12.5965 2.62404H13.4386L13.721 1.63862L14.0522 2.62404H14.77L14.206 3.38926L14.4244 4.59674L13.722 3.91822ZM0.996148 9.93007L1.72203 9.25156L2.42437 9.93007L2.206 8.72259L2.77004 7.95738H2.05218L1.72101 6.97195L1.43858 7.95738H0.596497L1.24121 8.72259L0.996148 9.93007ZM5.72203 9.25156L4.99615 9.93007L5.24121 8.72259L4.5965 7.95738H5.43858L5.72101 6.97195L6.05218 7.95738H6.77004L6.206 8.72259L6.42437 9.93007L5.72203 9.25156ZM8.99615 9.93007L9.72203 9.25156L10.4244 9.93007L10.206 8.72259L10.77 7.95738H10.0522L9.72101 6.97195L9.43858 7.95738H8.5965L9.24121 8.72259L8.99615 9.93007ZM13.722 9.25156L12.9961 9.93007L13.2412 8.72259L12.5965 7.95738H13.4386L13.721 6.97195L14.0522 7.95738H14.77L14.206 8.72259L14.4244 9.93007L13.722 9.25156ZM0.996148 15.2634L1.72203 14.5849L2.42437 15.2634L2.206 14.0559L2.77004 13.2907H2.05218L1.72101 12.3053L1.43858 13.2907H0.596497L1.24121 14.0559L0.996148 15.2634ZM5.72203 14.5849L4.99615 15.2634L5.24121 14.0559L4.5965 13.2907H5.43858L5.72101 12.3053L6.05218 13.2907H6.77004L6.206 14.0559L6.42437 15.2634L5.72203 14.5849ZM8.99615 15.2634L9.72203 14.5849L10.4244 15.2634L10.206 14.0559L10.77 13.2907H10.0522L9.72101 12.3053L9.43858 13.2907H8.5965L9.24121 14.0559L8.99615 15.2634ZM13.722 14.5849L12.9961 15.2634L13.2412 14.0559L12.5965 13.2907H13.4386L13.721 12.3053L14.0522 13.2907H14.77L14.206 14.0559L14.4244 15.2634L13.722 14.5849ZM16.9961 4.59674L17.722 3.91822L18.4244 4.59674L18.206 3.38926L18.77 2.62404H18.0522L17.721 1.63862L17.4386 2.62404H16.5965L17.2412 3.38926L16.9961 4.59674ZM17.722 9.25156L16.9961 9.93007L17.2412 8.72259L16.5965 7.95738H17.4386L17.721 6.97195L18.0522 7.95738H18.77L18.206 8.72259L18.4244 9.93007L17.722 9.25156ZM16.9961 15.2634L17.722 14.5849L18.4244 15.2634L18.206 14.0559L18.77 13.2907H18.0522L17.721 12.3053L17.4386 13.2907H16.5965L17.2412 14.0559L16.9961 15.2634ZM3.72203 6.58489L2.99615 7.26341L3.24121 6.05593L2.5965 5.29071H3.43858L3.72101 4.30529L4.05218 5.29071H4.77004L4.206 6.05593L4.42437 7.26341L3.72203 6.58489ZM6.99615 7.26341L7.72203 6.58489L8.42437 7.26341L8.206 6.05593L8.77004 5.29071H8.05218L7.72101 4.30529L7.43858 5.29071H6.5965L7.24121 6.05593L6.99615 7.26341ZM11.722 6.58489L10.9961 7.26341L11.2412 6.05593L10.5965 5.29071H11.4386L11.721 4.30529L12.0522 5.29071H12.77L12.206 6.05593L12.4244 7.26341L11.722 6.58489ZM2.99615 12.5967L3.72203 11.9182L4.42437 12.5967L4.206 11.3893L4.77004 10.624H4.05218L3.72101 9.63862L3.43858 10.624H2.5965L3.24121 11.3893L2.99615 12.5967ZM7.72203 11.9182L6.99615 12.5967L7.24121 11.3893L6.5965 10.624H7.43858L7.72101 9.63862L8.05218 10.624H8.77004L8.206 11.3893L8.42437 12.5967L7.72203 11.9182ZM10.9961 12.5967L11.722 11.9182L12.4244 12.5967L12.206 11.3893L12.77 10.624H12.0522L11.721 9.63862L11.4386 10.624H10.5965L11.2412 11.3893L10.9961 12.5967ZM15.722 6.58489L14.9961 7.26341L15.2412 6.05593L14.5965 5.29071H15.4386L15.721 4.30529L16.0522 5.29071H16.77L16.206 6.05593L16.4244 7.26341L15.722 6.58489ZM14.9961 12.5967L15.722 11.9182L16.4244 12.5967L16.206 11.3893L16.77 10.624H16.0522L15.721 9.63862L15.4386 10.624H14.5965L15.2412 11.3893L14.9961 12.5967Z" fill="#F7FCFF"/>
</g>
</svg>
