<svg width="32" height="32" viewBox="0 0 32 32" fill="none" xmlns="http://www.w3.org/2000/svg">
<mask id="mask0_270_67489" style="mask-type:alpha" maskUnits="userSpaceOnUse" x="0" y="0" width="30" height="32">
<rect width="30" height="32" fill="white"/>
</mask>
<g mask="url(#mask0_270_67489)">
<path fill-rule="evenodd" clip-rule="evenodd" d="M15 0C6.71573 0 0 6.71573 0 15V17C0 25.2843 6.71573 32 15 32V32C23.2843 32 30 25.2843 30 17V15C30 6.71573 23.2843 0 15 0V0Z" fill="#F7FCFF"/>
<mask id="mask1_270_67489" style="mask-type:alpha" maskUnits="userSpaceOnUse" x="0" y="0" width="30" height="32">
<path fill-rule="evenodd" clip-rule="evenodd" d="M15 0C6.71573 0 0 6.71573 0 15V17C0 25.2843 6.71573 32 15 32V32C23.2843 32 30 25.2843 30 17V15C30 6.71573 23.2843 0 15 0V0Z" fill="white"/>
</mask>
<g mask="url(#mask1_270_67489)">
<path fill-rule="evenodd" clip-rule="evenodd" d="M0 0V10.6667H30V0H0Z" fill="#FF8C1A"/>
<path fill-rule="evenodd" clip-rule="evenodd" d="M0 21.3333V32H30V21.3333H0Z" fill="#5EAA22"/>
<path fill-rule="evenodd" clip-rule="evenodd" d="M11.25 16C11.25 18.9455 12.9289 21.3333 15 21.3333C17.0711 21.3333 18.75 18.9455 18.75 16C18.75 13.0545 17.0711 10.6667 15 10.6667C12.9289 10.6667 11.25 13.0545 11.25 16ZM17.8125 16C17.8125 18.2091 16.5533 20 15 20C13.4467 20 12.1875 18.2091 12.1875 16C12.1875 13.7909 13.4467 12 15 12C16.5533 12 17.8125 13.7909 17.8125 16Z" fill="#3D58DB"/>
<path fill-rule="evenodd" clip-rule="evenodd" d="M14.9949 17.1476L14.4597 21.3083L14.7704 17.1017L13.4327 20.8795L14.5642 16.9678L12.5323 20.0565L14.3929 16.7566L11.8314 18.9061L14.2703 16.4853L11.3868 17.5214L14.2064 16.1759L11.2345 16.0147L14.2064 15.8535L11.3868 14.508L14.2703 15.5441L11.8314 13.1233L14.3929 15.2728L12.5323 11.9729L14.5642 15.0617L13.4327 11.15L14.7704 14.9277L14.4597 10.7211L14.9949 14.8818L15.53 10.7211L15.2193 14.9277L16.557 11.15L15.4255 15.0617L17.4574 11.9729L15.5969 15.2728L18.1583 13.1233L15.7194 15.5441L18.6029 14.508L15.7833 15.8535L18.7552 16.0147L15.7833 16.1759L18.6029 17.5214L15.7194 16.4853L18.1583 18.9061L15.5969 16.7566L17.4574 20.0565L15.4255 16.9678L16.557 20.8795L15.2193 17.1017L15.53 21.3083L14.9949 17.1476Z" fill="#3D58DB"/>
</g>
</g>
</svg>
