<svg width="32" height="32" viewBox="0 0 32 32" fill="none" xmlns="http://www.w3.org/2000/svg">
<mask id="mask0_270_61597" style="mask-type:alpha" maskUnits="userSpaceOnUse" x="0" y="0" width="32" height="32">
<rect width="32" height="32" rx="16" fill="white"/>
</mask>
<g mask="url(#mask0_270_61597)">
<path fill-rule="evenodd" clip-rule="evenodd" d="M22 0H32V32H22V0Z" fill="#D9071E"/>
<path fill-rule="evenodd" clip-rule="evenodd" d="M0 0H12V32H0V0Z" fill="#006923"/>
<path fill-rule="evenodd" clip-rule="evenodd" d="M10 0H22V32H10V0Z" fill="white"/>
<path fill-rule="evenodd" clip-rule="evenodd" d="M13.0555 11.1224C12.9492 11.7293 13.0184 11.8725 13.5323 11.8725C13.559 11.8725 13.6014 11.9731 13.6474 12.0825C13.6979 12.2025 13.753 12.3332 13.7967 12.3534C13.778 12.3865 13.5826 12.8573 13.5816 13.6867C13.5815 13.8575 13.641 14.1389 13.6983 14.4092C13.7605 14.7033 13.82 14.9841 13.7967 15.0951C13.7588 15.2758 13.5889 15.0789 13.4573 14.9263C13.382 14.8391 13.3193 14.7663 13.3008 14.787C13.2068 14.8924 13.1583 14.0576 13.129 13.5531C13.1159 13.3285 13.1067 13.1694 13.0989 13.188C13.0661 13.0916 13.0527 12.973 13.0395 12.8559C13.0107 12.6013 12.9827 12.3534 12.7573 12.3534H12.1772V12.9228C12.1772 12.9228 12.5129 12.9228 12.5129 13.9823C12.5184 14.1406 12.6751 15.5337 13.0555 15.5409C12.8326 15.5476 12.8342 15.6069 12.8352 15.6416L12.8353 15.6479C12.8353 16.5001 13.3695 16.5922 13.8688 16.3517C14.1688 16.2071 14.4874 15.9248 14.7259 15.5768C15.0625 15.0859 15.1041 14.4501 14.6621 14.1015C14.5047 13.9774 14.334 13.9295 14.0952 13.9118C14.1424 13.7249 14.0977 13.558 14.0628 13.4278C14.0337 13.3189 14.0114 13.2357 14.0555 13.188C14.5561 12.6467 14.6007 12.1477 14.2365 11.7001C14.1892 11.6421 14.1435 11.5634 14.0964 11.4823C14.0077 11.3296 13.9142 11.1686 13.7967 11.1224C13.851 10.9764 13.9241 10.7994 14.0159 10.5956L13.1586 9.90926C13.0032 10.2544 13.0291 10.5244 13.0518 10.7596C13.0642 10.8888 13.0756 11.0075 13.0555 11.1224ZM13.9878 14.6772L13.9723 14.6995L13.9829 14.6867C13.9845 14.6829 13.9861 14.6797 13.9878 14.6772ZM13.5342 15.0951C13.534 15.0952 13.5345 15.0951 13.5356 15.0948L13.5342 15.0951ZM13.0555 15.5409C13.0587 15.5408 13.062 15.5407 13.0653 15.5406ZM13.099 15.5403C13.0872 15.5403 13.076 15.5404 13.0653 15.5406L13.0838 15.5401L13.099 15.5403Z" fill="#A8AC71"/>
<path fill-rule="evenodd" clip-rule="evenodd" d="M14.384 10.5512C14.384 10.5512 13.6972 11.2614 13.8257 12.0186C13.9541 12.7758 15.3076 12.0186 15.144 11.2849C14.9804 10.5512 14.384 10.5512 14.384 10.5512Z" fill="#FCCA3D"/>
<path fill-rule="evenodd" clip-rule="evenodd" d="M19.2664 16.5372C19.2664 16.5372 20.1914 12.8821 18.7211 10.99C17.2507 9.09796 15.5516 9.22457 15.5516 9.22457C15.5516 9.22457 15.0623 9.70929 15.5516 10.079C16.0409 10.4486 15.8359 10.8031 15.8359 10.8031C15.8359 10.8031 15.0164 9.69372 14.4725 10.3419C13.9285 10.99 14.9803 10.8914 14.8689 11.3794C14.7576 11.8674 14.2859 14.0342 14.9751 15.1281C15.6644 16.222 14.3235 15.9846 14.5962 15.9846C14.8689 15.9846 15.8359 16.2392 15.8359 15.9846C15.8359 15.73 16.172 16.9746 16.4597 16.9746C16.7474 16.9746 16.9695 16.5372 16.9695 16.5372C16.9695 16.5372 17.3728 16.9746 17.6185 16.9746C17.8642 16.9746 18.7211 16.6883 18.7211 16.6883L17.1016 14.869C17.1016 14.869 17.1992 14.0665 16.9695 13.8928C16.7397 13.7191 18.8112 15.432 18.9735 15.9846C19.1357 16.5372 19.2664 16.5372 19.2664 16.5372Z" fill="#8F4620"/>
<path d="M11.0664 15.6354C11.0664 15.6354 11.2166 14.9974 11.3773 14.9531C11.5166 14.9147 11.8094 15.2588 11.8094 15.2588C12.3297 19.112 13.5876 20.617 15.6749 20.617C17.7867 20.617 19.0666 19.4734 19.8135 15.9197C19.8135 15.9197 20.2106 15.379 20.3507 15.4391C20.5032 15.5046 20.6943 16.2199 20.6943 16.2199C19.8375 20.2967 18.2185 22.1118 15.6749 22.1118C13.1067 22.1118 11.6638 20.0597 11.0664 15.6354Z" fill="#9FAB2F"/>
<path fill-rule="evenodd" clip-rule="evenodd" d="M13.3341 18.2086C13.3341 18.2086 16.3385 19.0584 17.5243 19.0584C18.7102 19.0584 16.4839 20.3488 15.6152 20.3488C15.2352 20.3488 14.7772 20.0416 14.2412 19.4273C14.1451 19.3173 14.2382 19.0709 13.9455 19.0675C13.5374 19.0628 13.0304 18.9352 13.0789 18.8574C13.125 18.7834 13.7188 18.7611 13.6616 18.6802C13.5672 18.5468 13.3341 18.2086 13.3341 18.2086Z" fill="#2FC2DC"/>
<rect x="14.6666" y="18.8" width="2" height="1.42857" rx="0.166667" fill="#F9AA51"/>
<path d="M12.1754 16.1812C12.1754 16.1812 12.1754 15.6811 12.4294 15.4154C12.7205 15.1109 12.994 15.4154 12.994 15.4154C14.0595 17.4402 15.6528 18.1064 17.8812 17.4111C17.8812 17.4111 18.5475 17.7014 18.581 17.8922C18.6234 18.1342 18.109 18.7094 18.109 18.7094C15.504 19.5221 13.4904 18.6803 12.1754 16.1812Z" fill="#259485"/>
<path fill-rule="evenodd" clip-rule="evenodd" d="M16.5913 16.467C16.5913 16.467 15.3776 17.3189 15.7822 17.3189C16.1867 17.3189 17.77 17.7448 17.4619 17.3189C17.1538 16.8929 16.5913 16.467 16.5913 16.467Z" fill="#FCCA3D"/>
<path fill-rule="evenodd" clip-rule="evenodd" d="M15.1563 15.451C15.1563 15.451 14.9257 14.5629 14.4458 14.5629C13.9659 14.5629 14.1014 15.2914 13.8706 15.2914C13.6398 15.2914 14.0856 15.8041 14.2843 15.8041C14.483 15.8041 15.1563 15.451 15.1563 15.451Z" fill="#FCCA3D"/>
</g>
</svg>
