<svg width="32" height="32" viewBox="0 0 32 32" fill="none" xmlns="http://www.w3.org/2000/svg">
<mask id="mask0_270_64208" style="mask-type:alpha" maskUnits="userSpaceOnUse" x="0" y="0" width="32" height="32">
<rect width="32" height="32" rx="16" fill="white"/>
</mask>
<g mask="url(#mask0_270_64208)">
<path fill-rule="evenodd" clip-rule="evenodd" d="M0 0V32H32V0H0Z" fill="#2E42A5"/>
<mask id="mask1_270_64208" style="mask-type:alpha" maskUnits="userSpaceOnUse" x="0" y="0" width="32" height="32">
<path fill-rule="evenodd" clip-rule="evenodd" d="M0 0V32H32V0H0Z" fill="white"/>
</mask>
<g mask="url(#mask1_270_64208)">
<rect width="18" height="18.6667" fill="#2B409A"/>
<mask id="mask2_270_64208" style="mask-type:alpha" maskUnits="userSpaceOnUse" x="0" y="0" width="18" height="19">
<rect width="18" height="18.6667" fill="white"/>
</mask>
<g mask="url(#mask2_270_64208)">
<path d="M-2.00427 17.3331L1.95668 19.6494L18.0899 2.51833L20.1792 -0.923712L15.9435 -1.69788L9.36317 5.68438L4.06667 10.6583L-2.00427 17.3331Z" fill="#F7FCFF"/>
<path d="M-1.46201 18.9559L0.555916 20.3001L19.4289 -1.24351H16.5955L-1.46201 18.9559Z" fill="#F50100"/>
<path d="M20.0043 17.3331L16.0433 19.6494L-0.0898895 2.51833L-2.1792 -0.923712L2.05647 -1.69788L8.63681 5.68438L13.9333 10.6583L20.0043 17.3331Z" fill="#F7FCFF"/>
<path d="M19.8691 18.4978L17.8512 19.842L9.81486 10.618L7.43226 9.58745L-2.38023 -0.911924H0.453163L10.2601 9.33824L12.8651 10.574L19.8691 18.4978Z" fill="#F50100"/>
<mask id="path-10-outside-1_270_64208" maskUnits="userSpaceOnUse" x="-2" y="-2" width="22" height="23" fill="black">
<rect fill="white" x="-2" y="-2" width="22" height="23"/>
<path fill-rule="evenodd" clip-rule="evenodd" d="M9.98451 0H7.98451V8H0V10.6667H7.98451V18.6667H9.98451V10.6667H18V8H9.98451V0Z"/>
</mask>
<path fill-rule="evenodd" clip-rule="evenodd" d="M9.98451 0H7.98451V8H0V10.6667H7.98451V18.6667H9.98451V10.6667H18V8H9.98451V0Z" fill="#F50100"/>
<path d="M7.98451 0V-1.5H6.48451V0H7.98451ZM9.98451 0H11.4845V-1.5H9.98451V0ZM7.98451 8V9.5H9.48451V8H7.98451ZM0 8V6.5H-1.5V8H0ZM0 10.6667H-1.5V12.1667H0V10.6667ZM7.98451 10.6667H9.48451V9.16667H7.98451V10.6667ZM7.98451 18.6667H6.48451V20.1667H7.98451V18.6667ZM9.98451 18.6667V20.1667H11.4845V18.6667H9.98451ZM9.98451 10.6667V9.16667H8.48451V10.6667H9.98451ZM18 10.6667V12.1667H19.5V10.6667H18ZM18 8H19.5V6.5H18V8ZM9.98451 8H8.48451V9.5H9.98451V8ZM7.98451 1.5H9.98451V-1.5H7.98451V1.5ZM9.48451 8V0H6.48451V8H9.48451ZM0 9.5H7.98451V6.5H0V9.5ZM1.5 10.6667V8H-1.5V10.6667H1.5ZM7.98451 9.16667H0V12.1667H7.98451V9.16667ZM9.48451 18.6667V10.6667H6.48451V18.6667H9.48451ZM9.98451 17.1667H7.98451V20.1667H9.98451V17.1667ZM8.48451 10.6667V18.6667H11.4845V10.6667H8.48451ZM18 9.16667H9.98451V12.1667H18V9.16667ZM16.5 8V10.6667H19.5V8H16.5ZM9.98451 9.5H18V6.5H9.98451V9.5ZM8.48451 0V8H11.4845V0H8.48451Z" fill="#F7FCFF" mask="url(#path-10-outside-1_270_64208)"/>
</g>
<path fill-rule="evenodd" clip-rule="evenodd" d="M24.1 9.96082L23.8403 11.9795L25.2 11.0264L26.5597 11.9795L26.3 9.96082L27.4 8.53117L25.8798 8.23665L25.2 6.39998L24.5202 8.23665L23 8.53117L24.1 9.96082ZM20.1 17.4275L19.8403 19.4462L21.2 18.4931L22.5597 19.4462L22.3 17.4275L23.4 15.9979L21.8798 15.7033L21.2 13.8667L20.5202 15.7033L19 15.9979L20.1 17.4275ZM23.4266 25.9514L23.0898 28.5694L24.8532 27.3333L26.6165 28.5694L26.2798 25.9514L27.7063 24.0973L25.7348 23.7153L24.8532 21.3333L23.9715 23.7153L22 24.0973L23.4266 25.9514ZM26.8394 19.44L27.0988 17.4235L26 15.9955L27.5185 15.7013L28.1976 13.8667L28.8766 15.7013L30.3951 15.9955L29.2963 17.4235L29.5557 19.44L28.1976 18.488L26.8394 19.44Z" fill="#F50100"/>
<path d="M23.8403 11.9795L23.642 11.954L23.5842 12.4033L23.9551 12.1433L23.8403 11.9795ZM24.1 9.96082L24.2984 9.98633L24.3089 9.90436L24.2585 9.83886L24.1 9.96082ZM25.2 11.0264L25.3148 10.8626L25.2 10.7822L25.0852 10.8626L25.2 11.0264ZM26.5597 11.9795L26.4449 12.1433L26.8158 12.4033L26.758 11.954L26.5597 11.9795ZM26.3 9.96082L26.1415 9.83886L26.0911 9.90436L26.1016 9.98633L26.3 9.96082ZM27.4 8.53117L27.5585 8.65313L27.756 8.39643L27.438 8.33482L27.4 8.53117ZM25.8798 8.23665L25.6923 8.30607L25.7313 8.41159L25.8418 8.433L25.8798 8.23665ZM25.2 6.39998L25.3876 6.33055L25.2 5.82383L25.0124 6.33055L25.2 6.39998ZM24.5202 8.23665L24.5582 8.433L24.6687 8.41159L24.7077 8.30607L24.5202 8.23665ZM23 8.53117L22.962 8.33482L22.644 8.39643L22.8415 8.65313L23 8.53117ZM19.8403 19.4462L19.642 19.4207L19.5842 19.87L19.9551 19.61L19.8403 19.4462ZM20.1 17.4275L20.2984 17.453L20.3089 17.371L20.2585 17.3055L20.1 17.4275ZM21.2 18.4931L21.3148 18.3293L21.2 18.2488L21.0852 18.3293L21.2 18.4931ZM22.5597 19.4462L22.4449 19.61L22.8158 19.87L22.758 19.4207L22.5597 19.4462ZM22.3 17.4275L22.1415 17.3055L22.0911 17.371L22.1016 17.453L22.3 17.4275ZM23.4 15.9979L23.5585 16.1198L23.756 15.8631L23.438 15.8015L23.4 15.9979ZM21.8798 15.7033L21.6923 15.7728L21.7313 15.8783L21.8418 15.8997L21.8798 15.7033ZM21.2 13.8667L21.3876 13.7972L21.2 13.2905L21.0124 13.7972L21.2 13.8667ZM20.5202 15.7033L20.5582 15.8997L20.6687 15.8783L20.7077 15.7728L20.5202 15.7033ZM19 15.9979L18.962 15.8015L18.644 15.8631L18.8415 16.1198L19 15.9979ZM23.0898 28.5694L22.8914 28.5439L22.8336 28.9932L23.2046 28.7332L23.0898 28.5694ZM23.4266 25.9514L23.6249 25.9769L23.6355 25.8949L23.5851 25.8294L23.4266 25.9514ZM24.8532 27.3333L24.968 27.1696L24.8532 27.0891L24.7384 27.1696L24.8532 27.3333ZM26.6165 28.5694L26.5017 28.7332L26.8727 28.9932L26.8149 28.5439L26.6165 28.5694ZM26.2798 25.9514L26.1212 25.8294L26.0708 25.8949L26.0814 25.9769L26.2798 25.9514ZM27.7063 24.0973L27.8648 24.2192L28.0624 23.9625L27.7444 23.9009L27.7063 24.0973ZM25.7348 23.7153L25.5473 23.7847L25.5863 23.8902L25.6968 23.9116L25.7348 23.7153ZM24.8532 21.3333L25.0407 21.2639L24.8532 20.7572L24.6656 21.2639L24.8532 21.3333ZM23.9715 23.7153L24.0095 23.9116L24.12 23.8902L24.1591 23.7847L23.9715 23.7153ZM22 24.0973L21.962 23.9009L21.644 23.9625L21.8415 24.2192L22 24.0973ZM27.0988 17.4235L27.2971 17.4491L27.3077 17.3671L27.2573 17.3016L27.0988 17.4235ZM26.8394 19.44L26.641 19.4145L26.5832 19.8638L26.9542 19.6038L26.8394 19.44ZM26 15.9955L25.962 15.7991L25.644 15.8607L25.8415 16.1174L26 15.9955ZM27.5185 15.7013L27.5565 15.8976L27.667 15.8762L27.706 15.7707L27.5185 15.7013ZM28.1976 13.8667L28.3851 13.7972L28.1976 13.2905L28.01 13.7972L28.1976 13.8667ZM28.8766 15.7013L28.6891 15.7707L28.7281 15.8762L28.8386 15.8976L28.8766 15.7013ZM30.3951 15.9955L30.5536 16.1174L30.7511 15.8607L30.4332 15.7991L30.3951 15.9955ZM29.2963 17.4235L29.1378 17.3016L29.0874 17.3671L29.098 17.4491L29.2963 17.4235ZM29.5557 19.44L29.4409 19.6038L29.8119 19.8638L29.7541 19.4145L29.5557 19.44ZM28.1976 18.488L28.3124 18.3242L28.1976 18.2437L28.0828 18.3242L28.1976 18.488ZM24.0387 12.005L24.2984 9.98633L23.9016 9.9353L23.642 11.954L24.0387 12.005ZM25.0852 10.8626L23.7255 11.8157L23.9551 12.1433L25.3148 11.1902L25.0852 10.8626ZM26.6745 11.8157L25.3148 10.8626L25.0852 11.1902L26.4449 12.1433L26.6745 11.8157ZM26.1016 9.98633L26.3613 12.005L26.758 11.954L26.4984 9.9353L26.1016 9.98633ZM27.2415 8.40921L26.1415 9.83886L26.4585 10.0828L27.5585 8.65313L27.2415 8.40921ZM25.8418 8.433L27.362 8.72752L27.438 8.33482L25.9179 8.0403L25.8418 8.433ZM25.0124 6.4694L25.6923 8.30607L26.0674 8.16722L25.3876 6.33055L25.0124 6.4694ZM24.7077 8.30607L25.3876 6.4694L25.0124 6.33055L24.3326 8.16722L24.7077 8.30607ZM23.038 8.72752L24.5582 8.433L24.4821 8.0403L22.962 8.33482L23.038 8.72752ZM24.2585 9.83886L23.1585 8.40921L22.8415 8.65313L23.9415 10.0828L24.2585 9.83886ZM20.0387 19.4717L20.2984 17.453L19.9016 17.402L19.642 19.4207L20.0387 19.4717ZM21.0852 18.3293L19.7255 19.2824L19.9551 19.61L21.3148 18.6569L21.0852 18.3293ZM22.6745 19.2824L21.3148 18.3293L21.0852 18.6569L22.4449 19.61L22.6745 19.2824ZM22.1016 17.453L22.3613 19.4717L22.758 19.4207L22.4984 17.402L22.1016 17.453ZM23.2415 15.8759L22.1415 17.3055L22.4585 17.5495L23.5585 16.1198L23.2415 15.8759ZM21.8418 15.8997L23.362 16.1942L23.438 15.8015L21.9179 15.507L21.8418 15.8997ZM21.0124 13.9361L21.6923 15.7728L22.0674 15.6339L21.3876 13.7972L21.0124 13.9361ZM20.7077 15.7728L21.3876 13.9361L21.0124 13.7972L20.3326 15.6339L20.7077 15.7728ZM19.038 16.1942L20.5582 15.8997L20.4821 15.507L18.962 15.8015L19.038 16.1942ZM20.2585 17.3055L19.1585 15.8759L18.8415 16.1198L19.9415 17.5495L20.2585 17.3055ZM23.2882 28.5949L23.6249 25.9769L23.2282 25.9258L22.8914 28.5439L23.2882 28.5949ZM24.7384 27.1696L22.975 28.4056L23.2046 28.7332L24.968 27.4971L24.7384 27.1696ZM26.7313 28.4056L24.968 27.1696L24.7384 27.4971L26.5017 28.7332L26.7313 28.4056ZM26.0814 25.9769L26.4182 28.5949L26.8149 28.5439L26.4781 25.9258L26.0814 25.9769ZM27.5478 23.9753L26.1212 25.8294L26.4383 26.0733L27.8648 24.2192L27.5478 23.9753ZM25.6968 23.9116L27.6683 24.2936L27.7444 23.9009L25.7729 23.519L25.6968 23.9116ZM24.6656 21.4028L25.5473 23.7847L25.9224 23.6459L25.0407 21.2639L24.6656 21.4028ZM24.1591 23.7847L25.0407 21.4028L24.6656 21.2639L23.7839 23.6459L24.1591 23.7847ZM22.038 24.2936L24.0095 23.9116L23.9334 23.519L21.962 23.9009L22.038 24.2936ZM23.5851 25.8294L22.1585 23.9753L21.8415 24.2192L23.2681 26.0733L23.5851 25.8294ZM26.9004 17.398L26.641 19.4145L27.0378 19.4655L27.2971 17.4491L26.9004 17.398ZM25.8415 16.1174L26.9403 17.5455L27.2573 17.3016L26.1585 15.8735L25.8415 16.1174ZM27.4804 15.5049L25.962 15.7991L26.038 16.1918L27.5565 15.8976L27.4804 15.5049ZM28.01 13.7972L27.3309 15.6319L27.706 15.7707L28.3851 13.9361L28.01 13.7972ZM29.0642 15.6319L28.3851 13.7972L28.01 13.9361L28.6891 15.7707L29.0642 15.6319ZM30.4332 15.7991L28.9147 15.5049L28.8386 15.8976L30.3571 16.1918L30.4332 15.7991ZM29.4548 17.5455L30.5536 16.1174L30.2366 15.8735L29.1378 17.3016L29.4548 17.5455ZM29.7541 19.4145L29.4947 17.398L29.098 17.4491L29.3574 19.4655L29.7541 19.4145ZM28.0828 18.6517L29.4409 19.6038L29.6705 19.2762L28.3124 18.3242L28.0828 18.6517ZM26.9542 19.6038L28.3124 18.6517L28.0828 18.3242L26.7246 19.2762L26.9542 19.6038Z" fill="#F7FCFF"/>
</g>
</g>
</svg>
